<?xml version="1.0" encoding="utf-8"?>
<!-- Generator: Adobe Illustrator 25.4.1, SVG Export Plug-In . SVG Version: 6.00 Build 0)  -->
<svg version="1.1" xmlns="http://www.w3.org/2000/svg" xmlns:xlink="http://www.w3.org/1999/xlink" x="0px" y="0px"
	 viewBox="0 0 95 95.1" style="enable-background:new 0 0 95 95.1;" xml:space="preserve">
<style type="text/css">
	.st0{fill:#677788;}
</style>
<g id="Layer_2">
</g>
<g id="Layer_1">
	<g>
		<path class="st0" d="M5270.6,2397.7v-2c0-2.8-5-4-9.7-4s-9.7,1.3-9.7,4v2c0,1.8,0.7,3.6,2,4.9l5,4.9c0.3,0.3,0.4,0.6,0.4,1v6.4
			c0,0.4,0.2,0.7,0.6,0.8l2.9,0.9c0.5,0.1,1-0.2,1-0.8v-7.2c0-0.4,0.2-0.7,0.4-1l5.1-5C5269.9,2401.3,5270.6,2399.5,5270.6,2397.7z
			 M5260.9,2397.6c-4.8,0-7.4-1.3-7.5-1.8l0,0c0.1-0.5,2.7-1.8,7.5-1.8s7.3,1.3,7.5,1.8C5268.2,2396.3,5265.7,2397.6,5260.9,2397.6z
			"/>
		<path class="st0" d="M5265.9,2407.9c-0.6,0-1,0.4-1,1s0.4,1,1,1h4.3c0.6,0,1-0.4,1-1s-0.4-1-1-1H5265.9z"/>
		<path class="st0" d="M5270.2,2411.3h-4.3c-0.6,0-1,0.4-1,1s0.4,1,1,1h4.3c0.6,0,1-0.4,1-1
			C5271.2,2411.7,5270.8,2411.3,5270.2,2411.3z"/>
		<path class="st0" d="M5270.2,2414.6h-4.3c-0.6,0-1,0.4-1,1s0.4,1,1,1h4.3c0.6,0,1-0.4,1-1
			C5271.2,2415.1,5270.8,2414.6,5270.2,2414.6z"/>
	</g>
	<path class="st0" d="M47.5,0.1C21.3,0.1,0,21.4,0,47.6s21.3,47.5,47.5,47.5S95,73.8,95,47.6S73.7,0.1,47.5,0.1z M52.8,71.3
		c0,2.9-2.4,5.3-5.3,5.3c-2.9,0-5.3-2.4-5.3-5.3V44.8c0-2.9,2.4-5.3,5.3-5.3c2.9,0,5.3,2.4,5.3,5.3V71.3z M47.5,32.7
		c-3.8,0-6.9-3.1-6.9-6.9s3.1-6.9,6.9-6.9s6.9,3.1,6.9,6.9S51.3,32.7,47.5,32.7z"/>
</g>
</svg>
