<?xml version="1.0" encoding="utf-8"?>
<!-- Generator: Adobe Illustrator 25.4.1, SVG Export Plug-In . SVG Version: 6.00 Build 0)  -->
<svg version="1.1" id="Layer_1" xmlns="http://www.w3.org/2000/svg" xmlns:xlink="http://www.w3.org/1999/xlink" x="0px" y="0px"
	 viewBox="0 0 90 90" style="enable-background:new 0 0 90 90;" xml:space="preserve">
<style type="text/css">
	.st0{fill:#677788;}
</style>
<path class="st0" d="M84.8,70.1l-0.5-1c-1.4-3.3-18.6-8.3-20-8.4l-1.1,0.1c-2.1,0.4-4.4,2.3-8.9,6.2c-0.9,0.8-2.1,1-3.2,0.4
	c-5.9-3.3-13.1-9.9-16.7-13.9c-3.9-4.3-8.6-11.4-10.8-17.1c-0.4-1.1,0-2.3,0.8-3.1c5.1-4.6,7.3-6.8,7.5-9.2C32,22.7,29,5,25.9,3.3
	L25,2.7c-2-1.3-5-3.2-8.3-2.5c-0.8,0.2-1.6,0.5-2.3,0.9C12.2,2.5,6.7,6.3,4.2,11.2C2.7,14.3,2,42.4,23,66.1
	c20.8,23.5,46.5,24.5,50.3,23.7h0.1l0.3-0.1c5.2-1.9,9.6-6.8,11.3-8.9C88.1,77.1,86,72.6,84.8,70.1z"/>
</svg>
