<?xml version="1.0" encoding="utf-8"?>
<!-- Generator: Adobe Illustrator 25.4.1, SVG Export Plug-In . SVG Version: 6.00 Build 0)  -->
<svg version="1.1" id="Layer_1" xmlns="http://www.w3.org/2000/svg" xmlns:xlink="http://www.w3.org/1999/xlink" x="0px" y="0px"
	 viewBox="0 0 90 90" style="enable-background:new 0 0 90 90;" xml:space="preserve">
<style type="text/css">
	.st0{fill:#677788;}
</style>
<g>
	<path class="st0" d="M45,0C20.2,0,0,20.1,0,45s20.2,45,45,45s45-20.1,45-45S69.8,0,45,0z M45,21.5c7.2,0,13.1,5.9,13.1,13.1
		S52.2,47.7,45,47.7s-13.1-5.9-13.1-13.1S37.8,21.5,45,21.5z M45,82.9c-12.2,0-23.1-5.8-30.1-14.8c5.7-10.7,17.1-18,30.1-18
		s24.4,7.3,30.1,18C68.2,77.1,57.2,82.9,45,82.9z"/>
</g>
</svg>
